AG-EITP-New-Heavy.ufo
<glyph name="ampersand" format="2">
  <advance width="635"/>
  <unicode hex="0026"/>
  <outline>
    <contour>
      <point x="270" y="-16" type="curve" smooth="yes"/>
      <point x="325" y="-16"/>
      <point x="392" y="2"/>
      <point x="437" y="30" type="curve"/>
      <point x="455" y="6"/>
      <point x="491" y="-11"/>
      <point x="532" y="-11" type="curve" smooth="yes"/>
      <point x="563" y="-11"/>
      <point x="598" y="-3"/>
      <point x="620" y="8" type="curve"/>
      <point x="604" y="114" type="line"/>
      <point x="589" y="111"/>
      <point x="573" y="109"/>
      <point x="564" y="109" type="curve" smooth="yes"/>
      <point x="552" y="109"/>
      <point x="541" y="113"/>
      <point x="535" y="119" type="curve"/>
      <point x="535" y="120"/>
      <point x="536" y="122"/>
      <point x="542" y="129" type="curve" smooth="yes"/>
      <point x="583" y="177"/>
      <point x="608" y="247"/>
      <point x="607" y="304" type="curve"/>
      <point x="484" y="304" type="line"/>
      <point x="486" y="277"/>
      <point x="476" y="245"/>
      <point x="459" y="223" type="curve"/>
      <point x="355" y="370" type="line"/>
      <point x="434" y="385"/>
      <point x="486" y="453"/>
      <point x="486" y="535" type="curve" smooth="yes"/>
      <point x="486" y="638"/>
      <point x="403" y="696"/>
      <point x="307" y="696" type="curve" smooth="yes"/>
      <point x="200" y="696"/>
      <point x="129" y="625"/>
      <point x="129" y="526" type="curve" smooth="yes"/>
      <point x="129" y="479"/>
      <point x="145" y="431"/>
      <point x="169" y="407" type="curve"/>
      <point x="99" y="376"/>
      <point x="52" y="298"/>
      <point x="52" y="207" type="curve" smooth="yes"/>
      <point x="52" y="76"/>
      <point x="148" y="-16"/>
    </contour>
    <contour>
      <point x="357" y="546" type="curve" smooth="yes"/>
      <point x="357" y="511"/>
      <point x="328" y="481"/>
      <point x="284" y="470" type="curve"/>
      <point x="269" y="473"/>
      <point x="259" y="495"/>
      <point x="259" y="523" type="curve" smooth="yes"/>
      <point x="259" y="562"/>
      <point x="277" y="587"/>
      <point x="312" y="587" type="curve" smooth="yes"/>
      <point x="346" y="587"/>
      <point x="357" y="564"/>
    </contour>
    <contour>
      <point x="243" y="303" type="curve"/>
      <point x="366" y="131" type="line"/>
      <point x="344" y="117"/>
      <point x="314" y="108"/>
      <point x="289" y="108" type="curve" smooth="yes"/>
      <point x="239" y="108"/>
      <point x="183" y="144"/>
      <point x="183" y="207" type="curve" smooth="yes"/>
      <point x="183" y="248"/>
      <point x="207" y="287"/>
    </contour>
  </outline>
</glyph>
<glyph name="quotesingle" format="2">
  <advance width="205"/>
  <unicode hex="0027"/>
  <outline>
    <contour>
      <point x="110" y="581" type="curve"/>
      <point x="116" y="577"/>
      <point x="121" y="574"/>
      <point x="121" y="572" type="curve"/>
      <point x="100" y="552"/>
      <point x="70" y="533"/>
      <point x="46" y="524" type="curve"/>
      <point x="58" y="494" type="line"/>
      <point x="131" y="500"/>
      <point x="180" y="557"/>
      <point x="181" y="627" type="curve" smooth="yes"/>
      <point x="182" y="682"/>
      <point x="152" y="709"/>
      <point x="108" y="709" type="curve" smooth="yes"/>
      <point x="65" y="709"/>
      <point x="31" y="682"/>
      <point x="31" y="643" type="curve" smooth="yes"/>
      <point x="31" y="607"/>
      <point x="59" y="579"/>
      <point x="96" y="579" type="curve" smooth="yes"/>
      <point x="102" y="579"/>
      <point x="108" y="580"/>
    </contour>
  </outline>
</glyph>
<glyph name="parenright" format="2">
  <advance width="575"/>
  <unicode hex="0029"/>
  <outline>
    <contour>
      <point x="525" y="349" type="curve" smooth="yes"/>
      <point x="525" y="115"/>
      <point x="402" y="-75"/>
      <point x="216" y="-126" type="curve"/>
      <point x="159" y="-29" type="line"/>
      <point x="290" y="45"/>
      <point x="378" y="196"/>
      <point x="378" y="352" type="curve" smooth="yes"/>
      <point x="378" y="505"/>
      <point x="290" y="655"/>
      <point x="159" y="727" type="curve"/>
      <point x="216" y="824" type="line"/>
      <point x="402" y="774"/>
      <point x="525" y="583"/>
    </contour>
  </outline>
</glyph>
<glyph name="hyphen" format="2">
  <advance width="355"/>
  <unicode hex="002D"/>
  <outline>
    <contour>
      <point x="291" y="355" type="line"/>
      <point x="74" y="355" type="line"/>
      <point x="74" y="250" type="line"/>
      <point x="291" y="250" type="line"/>
    </contour>
  </outline>
</glyph>
<glyph name="period" format="2">
  <advance width="280"/>
  <unicode hex="002E"/>
  <outline>
    <contour>
      <point x="219" y="49" type="curve" smooth="yes"/>
      <point x="219" y="89"/>
      <point x="186" y="124"/>
      <point x="144" y="124" type="curve" smooth="yes"/>
      <point x="102" y="124"/>
      <point x="69" y="89"/>
      <point x="69" y="49" type="curve" smooth="yes"/>
      <point x="69" y="9"/>
      <point x="102" y="-26"/>
      <point x="144" y="-26" type="curve" smooth="yes"/>
      <point x="186" y="-26"/>
      <point x="219" y="9"/>
    </contour>
  </outline>
</glyph>
<glyph name="three" format="2">
  <advance width="680"/>
  <unicode hex="0033"/>
  <outline>
    <contour>
      <point x="330" y="113" type="curve" smooth="yes"/>
      <point x="256" y="113"/>
      <point x="201" y="160"/>
      <point x="193" y="233" type="curve"/>
      <point x="50" y="213" type="line"/>
      <point x="43" y="75"/>
      <point x="156" y="-17"/>
      <point x="335" y="-17" type="curve" smooth="yes"/>
      <point x="496" y="-17"/>
      <point x="590" y="58"/>
      <point x="590" y="209" type="curve" smooth="yes"/>
      <point x="590" y="286"/>
      <point x="554" y="348"/>
      <point x="500" y="364" type="curve"/>
      <point x="550" y="389"/>
      <point x="583" y="446"/>
      <point x="583" y="516" type="curve" smooth="yes"/>
      <point x="583" y="645"/>
      <point x="470" y="717"/>
      <point x="336" y="717" type="curve" smooth="yes"/>
      <point x="203" y="717"/>
      <point x="88" y="631"/>
      <point x="50" y="503" type="curve"/>
      <point x="193" y="483" type="line"/>
      <point x="208" y="545"/>
      <point x="263" y="587"/>
      <point x="335" y="587" type="curve" smooth="yes"/>
      <point x="394" y="587"/>
      <point x="440" y="559"/>
      <point x="440" y="508" type="curve" smooth="yes"/>
      <point x="440" y="432"/>
      <point x="373" y="400"/>
      <point x="273" y="426" type="curve"/>
      <point x="273" y="299" type="line"/>
      <point x="377" y="325"/>
      <point x="447" y="292"/>
      <point x="447" y="215" type="curve" smooth="yes"/>
      <point x="447" y="148"/>
      <point x="394" y="113"/>
    </contour>
  </outline>
</glyph>
<glyph name="question" format="2">
  <advance width="725"/>
  <unicode hex="003F"/>
  <outline>
    <contour>
      <point x="365" y="166" type="curve"/>
      <point x="498" y="166" type="line"/>
      <point x="501" y="197"/>
      <point x="531" y="238"/>
      <point x="572" y="268" type="curve" smooth="yes"/>
      <point x="638" y="316"/>
      <point x="674" y="391"/>
      <point x="674" y="467" type="curve" smooth="yes"/>
      <point x="674" y="603"/>
      <point x="560" y="709"/>
      <point x="430" y="709" type="curve" smooth="yes"/>
      <point x="297" y="709"/>
      <point x="199" y="612"/>
      <point x="187" y="466" type="curve"/>
      <point x="321" y="466" type="line"/>
      <point x="327" y="532"/>
      <point x="371" y="576"/>
      <point x="430" y="576" type="curve" smooth="yes"/>
      <point x="493" y="576"/>
      <point x="541" y="525"/>
      <point x="541" y="461" type="curve" smooth="yes"/>
      <point x="541" y="404"/>
      <point x="504" y="385"/>
      <point x="475" y="365" type="curve" smooth="yes"/>
      <point x="405" y="315"/>
      <point x="366" y="240"/>
    </contour>
    <contour>
      <point x="497" y="50" type="curve" smooth="yes"/>
      <point x="497" y="86"/>
      <point x="467" y="116"/>
      <point x="431" y="116" type="curve" smooth="yes"/>
      <point x="395" y="116"/>
      <point x="365" y="86"/>
      <point x="365" y="50" type="curve" smooth="yes"/>
      <point x="365" y="14"/>
      <point x="395" y="-18"/>
      <point x="431" y="-18" type="curve" smooth="yes"/>
      <point x="467" y="-18"/>
      <point x="497" y="14"/>
    </contour>
  </outline>
</glyph>
<glyph name="A" format="2">
  <advance width="815"/>
  <unicode hex="0041"/>
  <anchor x="539" y="730" name="top"/>
  <outline>
    <contour>
      <point x="560" y="0" type="line"/>
      <point x="703" y="0" type="line"/>
      <point x="852" y="700" type="line"/>
      <point x="709" y="700" type="line"/>
    </contour>
    <contour>
      <point x="616" y="260" type="line"/>
      <point x="586" y="176"/>
      <point x="518" y="120"/>
      <point x="423" y="120" type="curve" smooth="yes"/>
      <point x="323" y="120"/>
      <point x="287" y="202"/>
      <point x="287" y="286" type="curve" smooth="yes"/>
      <point x="287" y="422"/>
      <point x="357" y="581"/>
      <point x="512" y="581" type="curve" smooth="yes"/>
      <point x="601" y="581"/>
      <point x="662" y="524"/>
      <point x="655" y="440" type="curve"/>
      <point x="760" y="497" type="line"/>
      <point x="736" y="629"/>
      <point x="665" y="716"/>
      <point x="507" y="716" type="curve" smooth="yes"/>
      <point x="296" y="716"/>
      <point x="131" y="521"/>
      <point x="131" y="282" type="curve" smooth="yes"/>
      <point x="131" y="120"/>
      <point x="205" y="-16"/>
      <point x="375" y="-16" type="curve" smooth="yes"/>
      <point x="553" y="-16"/>
      <point x="605" y="71"/>
      <point x="677" y="203" type="curve"/>
    </contour>
  </outline>
</glyph>
<glyph name="B" format="2">
  <advance width="730"/>
  <unicode hex="0042"/>
  <outline>
    <contour>
      <point x="642" y="381" type="curve"/>
      <point x="700" y="412"/>
      <point x="749" y="463"/>
      <point x="749" y="531" type="curve" smooth="yes"/>
      <point x="749" y="614"/>
      <point x="677" y="699"/>
      <point x="589" y="699" type="curve" smooth="yes"/>
      <point x="260" y="699" type="line"/>
      <point x="111" y="0" type="line"/>
      <point x="454" y="0" type="line" smooth="yes"/>
      <point x="582" y="0"/>
      <point x="714" y="102"/>
      <point x="714" y="232" type="curve" smooth="yes"/>
      <point x="714" y="291"/>
      <point x="687" y="355"/>
    </contour>
    <contour>
      <point x="503" y="418" type="curve" smooth="yes"/>
      <point x="343" y="418" type="line"/>
      <point x="375" y="566" type="line"/>
      <point x="534" y="566" type="line" smooth="yes"/>
      <point x="570" y="566"/>
      <point x="594" y="538"/>
      <point x="594" y="494" type="curve" smooth="yes"/>
      <point x="594" y="448"/>
      <point x="549" y="418"/>
    </contour>
    <contour>
      <point x="486" y="308" type="line" smooth="yes"/>
      <point x="528" y="308"/>
      <point x="557" y="269"/>
      <point x="557" y="220" type="curve" smooth="yes"/>
      <point x="557" y="166"/>
      <point x="502" y="133"/>
      <point x="449" y="133" type="curve" smooth="yes"/>
      <point x="282" y="133" type="line"/>
      <point x="320" y="308" type="line"/>
    </contour>
  </outline>
</glyph>
<glyph name="C" format="2">
  <advance width="755"/>
  <unicode hex="0043"/>
  <outline>
    <contour>
      <point x="616" y="260" type="line"/>
      <point x="578" y="176"/>
      <point x="510.213" y="121"/>
      <point x="420.705" y="121" type="curve" smooth="yes"/>
      <point x="319.213" y="121"/>
      <point x="279.874" y="192"/>
      <point x="282.113" y="290.996" type="curve" smooth="yes"/>
      <point x="285.074" y="421.965"/>
      <point x="360" y="581"/>
      <point x="511.503" y="581" type="curve" smooth="yes"/>
      <point x="599" y="581"/>
      <point x="651" y="524"/>
      <point x="655" y="440" type="curve"/>
      <point x="805" y="497" type="line"/>
      <point x="795" y="619"/>
      <point x="691" y="716"/>
      <point x="521.45" y="716" type="curve" smooth="yes"/>
      <point x="304.233" y="716"/>
      <point x="132.005" y="539.099"/>
      <point x="126.157" y="288.737" type="curve" smooth="yes"/>
      <point x="121.749" y="100"/>
      <point x="217" y="-16"/>
      <point x="406.459" y="-16" type="curve" smooth="yes"/>
      <point x="575" y="-16"/>
      <point x="691.85" y="75"/>
      <point x="751.787" y="202" type="curve"/>
    </contour>
  </outline>
</glyph>
<glyph name="D" format="2">
  <advance width="747"/>
  <unicode hex="0044"/>
  <outline>
    <contour>
      <point x="406" y="140" type="curve" smooth="yes"/>
      <point x="284" y="140" type="line"/>
      <point x="373" y="560" type="line"/>
      <point x="496" y="560" type="line" smooth="yes"/>
      <point x="591" y="560"/>
      <point x="630" y="472"/>
      <point x="630" y="392" type="curve" smooth="yes"/>
      <point x="630" y="268"/>
      <point x="542" y="140"/>
    </contour>
    <contour>
      <point x="375" y="0" type="line" smooth="yes"/>
      <point x="610" y="0"/>
      <point x="775" y="183"/>
      <point x="775" y="398" type="curve" smooth="yes"/>
      <point x="775" y="560"/>
      <point x="681" y="700"/>
      <point x="524" y="700" type="curve" smooth="yes"/>
      <point x="260" y="700" type="line"/>
      <point x="111" y="0" type="line"/>
    </contour>
  </outline>
</glyph>
<glyph name="E" format="2">
  <advance width="681"/>
  <unicode hex="0045"/>
  <anchor x="494" y="730" name="top"/>
  <outline>
    <contour>
      <point x="627" y="136" type="line"/>
      <point x="284" y="136" type="line"/>
      <point x="317" y="290" type="line"/>
      <point x="604" y="290" type="line"/>
      <point x="631" y="420" type="line"/>
      <point x="345" y="420" type="line"/>
      <point x="375" y="563" type="line"/>
      <point x="692" y="563" type="line"/>
      <point x="721" y="699" type="line"/>
      <point x="260" y="699" type="line"/>
      <point x="112" y="0" type="line"/>
      <point x="598" y="0" type="line"/>
    </contour>
  </outline>
</glyph>
<glyph name="F" format="2">
  <advance width="636"/>
  <unicode hex="0046"/>
  <outline>
    <contour>
      <point x="255" y="0" type="line"/>
      <point x="317" y="290" type="line"/>
      <point x="603" y="290" type="line"/>
      <point x="630" y="420" type="line"/>
      <point x="345" y="420" type="line"/>
      <point x="375" y="563" type="line"/>
      <point x="691" y="563" type="line"/>
      <point x="720" y="699" type="line"/>
      <point x="260" y="699" type="line"/>
      <point x="112" y="0" type="line"/>
    </contour>
  </outline>
</glyph>
<glyph name="G" format="2">
  <advance width="787"/>
  <unicode hex="0047"/>
  <outline>
    <contour>
      <point x="508.555" y="580" type="curve" smooth="yes"/>
      <point x="585" y="580"/>
      <point x="641" y="539"/>
      <point x="652" y="479" type="curve"/>
      <point x="796" y="543" type="line"/>
      <point x="763.15" y="644"/>
      <point x="666" y="717"/>
      <point x="521.086" y="717" type="curve" smooth="yes"/>
      <point x="296" y="717"/>
      <point x="135.201" y="524.886"/>
      <point x="126.706" y="287.788" type="curve" smooth="yes"/>
      <point x="119.835" y="96.0267"/>
      <point x="209" y="-17"/>
      <point x="362.148" y="-17" type="curve" smooth="yes"/>
      <point x="437" y="-17"/>
      <point x="514" y="10"/>
      <point x="567" y="50" type="curve"/>
      <point x="556" y="0" type="line"/>
      <point x="686" y="0" type="line"/>
      <point x="772" y="403" type="line"/>
      <point x="465" y="403" type="line"/>
      <point x="439" y="280" type="line"/>
      <point x="616" y="280" type="line"/>
      <point x="589" y="184"/>
      <point x="511" y="119"/>
      <point x="417.144" y="119" type="curve" smooth="yes"/>
      <point x="317" y="119"/>
      <point x="279.874" y="193"/>
      <point x="281.986" y="290.348" type="curve" smooth="yes"/>
      <point x="284.819" y="420.969"/>
      <point x="365" y="580"/>
    </contour>
  </outline>
</glyph>
<glyph name="H" format="2">
  <advance width="790"/>
  <unicode hex="0048"/>
  <outline>
    <contour>
      <point x="628" y="433" type="line"/>
      <point x="345" y="433" type="line"/>
      <point x="402" y="700" type="line"/>
      <point x="259" y="700" type="line"/>
      <point x="110" y="0" type="line"/>
      <point x="253" y="0" type="line"/>
      <point x="316" y="296" type="line"/>
      <point x="599" y="296" type="line"/>
      <point x="536" y="0" type="line"/>
      <point x="679" y="0" type="line"/>
      <point x="827" y="700" type="line"/>
      <point x="685" y="700" type="line"/>
    </contour>
  </outline>
</glyph>
<glyph name="I" format="2">
  <advance width="386"/>
  <unicode hex="0049"/>
  <anchor x="349.623" y="730" name="top"/>
  <outline>
    <contour>
      <point x="413" y="700" type="line"/>
      <point x="270" y="700" type="line"/>
      <point x="121" y="0" type="line"/>
      <point x="264" y="0" type="line"/>
    </contour>
  </outline>
</glyph>
<glyph name="J" format="2">
  <advance width="475"/>
  <unicode hex="004A"/>
  <outline>
    <contour>
      <point x="20" y="0" type="line"/>
      <point x="48" y="-7"/>
      <point x="88" y="-13"/>
      <point x="128" y="-13" type="curve" smooth="yes"/>
      <point x="236" y="-13"/>
      <point x="368" y="9"/>
      <point x="397" y="146" type="curve" smooth="yes"/>
      <point x="515" y="700" type="line"/>
      <point x="371" y="700" type="line"/>
      <point x="261" y="183" type="line" smooth="yes"/>
      <point x="251" y="135"/>
      <point x="194" y="131"/>
      <point x="175" y="131" type="curve"/>
      <point x="175" y="131"/>
      <point x="174" y="131"/>
      <point x="174" y="131" type="curve"/>
      <point x="138" y="131"/>
      <point x="113" y="132"/>
      <point x="109" y="135" type="curve"/>
    </contour>
  </outline>
</glyph>
<glyph name="K" format="2">
  <advance width="705"/>
  <unicode hex="004B"/>
  <outline>
    <contour>
      <point x="306" y="243" type="line"/>
      <point x="388" y="315" type="line"/>
      <point x="516" y="0" type="line"/>
      <point x="676" y="0" type="line"/>
      <point x="502" y="416" type="line"/>
      <point x="816" y="700" type="line"/>
      <point x="620" y="700" type="line"/>
      <point x="353" y="462" type="line"/>
      <point x="404" y="700" type="line"/>
      <point x="261" y="700" type="line"/>
      <point x="112" y="0" type="line"/>
      <point x="255" y="0" type="line"/>
    </contour>
  </outline>
</glyph>
<glyph name="L" format="2">
  <advance width="598"/>
  <unicode hex="004C"/>
  <outline>
    <contour>
      <point x="260" y="700" type="line"/>
      <point x="111" y="0" type="line"/>
      <point x="565" y="0" type="line"/>
      <point x="594" y="137" type="line"/>
      <point x="283" y="137" type="line"/>
      <point x="403" y="700" type="line"/>
    </contour>
  </outline>
</glyph>
<glyph name="M" format="2">
  <advance width="1075"/>
  <unicode hex="004D"/>
  <outline>
    <contour>
      <point x="226" y="700" type="line"/>
      <point x="237" y="585" type="line"/>
      <point x="112" y="0" type="line"/>
      <point x="255" y="0" type="line"/>
      <point x="360" y="493" type="line" smooth="yes"/>
      <point x="368.541" y="533.101"/>
      <point x="434" y="575"/>
      <point x="486" y="576" type="curve"/>
      <point x="552" y="576"/>
      <point x="568" y="516"/>
      <point x="568" y="485" type="curve" smooth="yes"/>
      <point x="568" y="478"/>
      <point x="567" y="471"/>
      <point x="566" y="464" type="curve"/>
      <point x="465" y="0" type="line"/>
      <point x="608" y="0" type="line"/>
      <point x="715" y="493" type="line" smooth="yes"/>
      <point x="723.029" y="529.994"/>
      <point x="785" y="576"/>
      <point x="839" y="576" type="curve" smooth="yes"/>
      <point x="917" y="576"/>
      <point x="921" y="521"/>
      <point x="921" y="491" type="curve" smooth="yes"/>
      <point x="921" y="484"/>
      <point x="920" y="473"/>
      <point x="919" y="466" type="curve" smooth="yes"/>
      <point x="818" y="0" type="line"/>
      <point x="961" y="0" type="line"/>
      <point x="1069" y="500" type="line" smooth="yes"/>
      <point x="1072" y="513"/>
      <point x="1073" y="525"/>
      <point x="1073" y="537" type="curve" smooth="yes"/>
      <point x="1073" y="635"/>
      <point x="992" y="715"/>
      <point x="886" y="715" type="curve" smooth="yes"/>
      <point x="816" y="715"/>
      <point x="726" y="682"/>
      <point x="686" y="641" type="curve"/>
      <point x="675" y="684"/>
      <point x="617" y="715"/>
      <point x="559" y="715" type="curve" smooth="yes"/>
      <point x="499" y="715"/>
      <point x="430" y="694"/>
      <point x="386" y="641" type="curve"/>
      <point x="366" y="700" type="line"/>
    </contour>
  </outline>
</glyph>
<glyph name="N" format="2">
  <advance width="840"/>
  <unicode hex="004E"/>
  <outline>
    <contour>
      <point x="257" y="700" type="line"/>
      <point x="268" y="585" type="line"/>
      <point x="143" y="0" type="line"/>
      <point x="289" y="0" type="line"/>
      <point x="387" y="458" type="line" smooth="yes"/>
      <point x="401" y="522"/>
      <point x="501" y="576"/>
      <point x="569" y="576" type="curve" smooth="yes"/>
      <point x="645" y="576"/>
      <point x="685" y="525"/>
      <point x="685" y="473" type="curve" smooth="yes"/>
      <point x="685" y="463"/>
      <point x="684" y="452"/>
      <point x="682" y="440" type="curve" smooth="yes"/>
      <point x="589" y="0" type="line"/>
      <point x="732" y="0" type="line"/>
      <point x="832" y="471" type="line" smooth="yes"/>
      <point x="835" y="485"/>
      <point x="836" y="498"/>
      <point x="836" y="512" type="curve" smooth="yes"/>
      <point x="836" y="603"/>
      <point x="765" y="714"/>
      <point x="640" y="714" type="curve" smooth="yes"/>
      <point x="554" y="714"/>
      <point x="469" y="670"/>
      <point x="431" y="627" type="curve"/>
      <point x="397" y="700" type="line"/>
    </contour>
  </outline>
</glyph>
<glyph name="O" format="2">
  <advance width="795"/>
  <unicode hex="004F"/>
  <anchor x="509" y="730" name="top"/>
  <outline>
    <contour>
      <point x="816" y="405" type="curve" smooth="yes"/>
      <point x="816" y="570"/>
      <point x="718" y="717"/>
      <point x="529" y="717" type="curve" smooth="yes"/>
      <point x="300" y="717"/>
      <point x="127" y="520"/>
      <point x="127" y="294" type="curve" smooth="yes"/>
      <point x="127" y="127"/>
      <point x="227" y="-17"/>
      <point x="415" y="-17" type="curve" smooth="yes"/>
      <point x="635" y="-17"/>
      <point x="816" y="180"/>
    </contour>
    <contour>
      <point x="510" y="580" type="curve" smooth="yes"/>
      <point x="623" y="580"/>
      <point x="660" y="493"/>
      <point x="660" y="402" type="curve" smooth="yes"/>
      <point x="660" y="269"/>
      <point x="581" y="119"/>
      <point x="432" y="119" type="curve" smooth="yes"/>
      <point x="319" y="119"/>
      <point x="283" y="205"/>
      <point x="283" y="296" type="curve" smooth="yes"/>
      <point x="283" y="429"/>
      <point x="361" y="580"/>
    </contour>
  </outline>
</glyph>
<glyph name="P" format="2">
  <advance width="705"/>
  <unicode hex="0050"/>
  <outline>
    <contour>
      <point x="561" y="700" type="curve" smooth="yes"/>
      <point x="260" y="700" type="line"/>
      <point x="111" y="0" type="line"/>
      <point x="254" y="0" type="line"/>
      <point x="306" y="246" type="line"/>
      <point x="465" y="246" type="line" smooth="yes"/>
      <point x="603" y="246"/>
      <point x="738" y="343"/>
      <point x="738" y="482" type="curve" smooth="yes"/>
      <point x="738" y="582"/>
      <point x="667" y="700"/>
    </contour>
    <contour>
      <point x="334" y="376" type="line"/>
      <point x="375" y="570" type="line"/>
      <point x="517" y="570" type="line" smooth="yes"/>
      <point x="565" y="570"/>
      <point x="593" y="535"/>
      <point x="593" y="477" type="curve" smooth="yes"/>
      <point x="593" y="414"/>
      <point x="545" y="376"/>
      <point x="476" y="376" type="curve" smooth="yes"/>
    </contour>
  </outline>
</glyph>
<glyph name="Q" format="2">
  <advance width="805"/>
  <unicode hex="0051"/>
  <outline>
    <contour>
      <point x="827" y="400" type="curve" smooth="yes"/>
      <point x="827" y="571"/>
      <point x="731" y="717"/>
      <point x="535" y="717" type="curve" smooth="yes"/>
      <point x="309" y="717"/>
      <point x="125" y="522"/>
      <point x="125" y="292" type="curve" smooth="yes"/>
      <point x="125" y="124"/>
      <point x="223" y="-17"/>
      <point x="423" y="-17" type="curve" smooth="yes"/>
      <point x="653" y="-17"/>
      <point x="827" y="170"/>
    </contour>
    <contour>
      <point x="514" y="580" type="curve" smooth="yes"/>
      <point x="634" y="580"/>
      <point x="671" y="487"/>
      <point x="671" y="395" type="curve" smooth="yes"/>
      <point x="671" y="259"/>
      <point x="588" y="119"/>
      <point x="438" y="119" type="curve" smooth="yes"/>
      <point x="320" y="119"/>
      <point x="282" y="206"/>
      <point x="282" y="298" type="curve" smooth="yes"/>
      <point x="282" y="434"/>
      <point x="364" y="580"/>
    </contour>
    <contour>
      <point x="535" y="253" type="line"/>
      <point x="410" y="196" type="line"/>
      <point x="492" y="-90" type="line"/>
      <point x="639" y="-23" type="line"/>
    </contour>
  </outline>
</glyph>
<glyph name="R" format="2">
  <advance width="754"/>
  <unicode hex="0052"/>
  <outline>
    <contour>
      <point x="260" y="700" type="line"/>
      <point x="111" y="0" type="line"/>
      <point x="254" y="0" type="line"/>
      <point x="312" y="272" type="line"/>
      <point x="406" y="272" type="line"/>
      <point x="507" y="0" type="line"/>
      <point x="674" y="0" type="line"/>
      <point x="567" y="285" type="line"/>
      <point x="663" y="292"/>
      <point x="756" y="384"/>
      <point x="756" y="493" type="curve" smooth="yes"/>
      <point x="756" y="590"/>
      <point x="687" y="700"/>
      <point x="583" y="700" type="curve" smooth="yes"/>
    </contour>
    <contour>
      <point x="375" y="571" type="line"/>
      <point x="542" y="571" type="line" smooth="yes"/>
      <point x="581" y="571"/>
      <point x="610" y="538"/>
      <point x="610" y="490" type="curve" smooth="yes"/>
      <point x="610" y="438"/>
      <point x="557" y="403"/>
      <point x="506" y="403" type="curve" smooth="yes"/>
      <point x="340" y="403" type="line"/>
    </contour>
  </outline>
</glyph>
<glyph name="S" format="2">
  <advance width="716"/>
  <unicode hex="0053"/>
  <outline>
    <contour>
      <point x="206" y="482" type="curve" smooth="yes"/>
      <point x="206" y="401"/>
      <point x="252" y="327"/>
      <point x="330" y="308" type="curve" smooth="yes"/>
      <point x="487" y="271" type="line" smooth="yes"/>
      <point x="520" y="263"/>
      <point x="532" y="228"/>
      <point x="526" y="200" type="curve" smooth="yes"/>
      <point x="516" y="153"/>
      <point x="457" y="118"/>
      <point x="389" y="117" type="curve" smooth="yes"/>
      <point x="316" y="116"/>
      <point x="245" y="157"/>
      <point x="203" y="214" type="curve"/>
      <point x="62" y="120" type="line"/>
      <point x="104" y="37"/>
      <point x="220" y="-18"/>
      <point x="365" y="-18" type="curve" smooth="yes"/>
      <point x="522" y="-18"/>
      <point x="695" y="46"/>
      <point x="695" y="217" type="curve" smooth="yes"/>
      <point x="695" y="314"/>
      <point x="639" y="384"/>
      <point x="558" y="405" type="curve" smooth="yes"/>
      <point x="423" y="441" type="line"/>
      <point x="387" y="445"/>
      <point x="368" y="471"/>
      <point x="375" y="503" type="curve" smooth="yes"/>
      <point x="385" y="552"/>
      <point x="448" y="579"/>
      <point x="500" y="579" type="curve" smooth="yes"/>
      <point x="555" y="579"/>
      <point x="617" y="551"/>
      <point x="658" y="508" type="curve"/>
      <point x="788" y="605" type="line"/>
      <point x="738" y="673"/>
      <point x="636" y="717"/>
      <point x="524" y="717" type="curve" smooth="yes"/>
      <point x="383" y="717"/>
      <point x="206" y="648"/>
    </contour>
  </outline>
</glyph>
<glyph name="T" format="2">
  <advance width="610"/>
  <unicode hex="0054"/>
  <outline>
    <contour>
      <point x="183" y="700" type="line"/>
      <point x="154" y="563" type="line"/>
      <point x="352" y="563" type="line"/>
      <point x="233" y="0" type="line"/>
      <point x="376" y="0" type="line"/>
      <point x="496" y="563" type="line"/>
      <point x="695" y="563" type="line"/>
      <point x="724" y="700" type="line"/>
    </contour>
  </outline>
</glyph>
<glyph name="U" format="2">
  <advance width="790"/>
  <unicode hex="0055"/>
  <anchor x="525" y="730" name="top"/>
  <outline>
    <contour>
      <point x="398" y="700" type="line"/>
      <point x="256" y="700" type="line"/>
      <point x="167" y="302" type="line" smooth="yes"/>
      <point x="162" y="282"/>
      <point x="160" y="262"/>
      <point x="160" y="243" type="curve" smooth="yes"/>
      <point x="160" y="111"/>
      <point x="255" y="-16"/>
      <point x="414" y="-16" type="curve" smooth="yes"/>
      <point x="554" y="-16"/>
      <point x="702" y="82"/>
      <point x="737" y="242" type="curve" smooth="yes"/>
      <point x="836" y="700" type="line"/>
      <point x="693" y="700" type="line"/>
      <point x="597" y="255" type="line" smooth="yes"/>
      <point x="580" y="174"/>
      <point x="505" y="127"/>
      <point x="435" y="127" type="curve" smooth="yes"/>
      <point x="354" y="127"/>
      <point x="302" y="190"/>
      <point x="302" y="257" type="curve" smooth="yes"/>
      <point x="302" y="266"/>
      <point x="303" y="276"/>
      <point x="305" y="286" type="curve" smooth="yes"/>
    </contour>
  </outline>
</glyph>
<glyph name="V" format="2">
  <advance width="665"/>
  <unicode hex="0056"/>
  <outline>
    <contour>
      <point x="325" y="700" type="line"/>
      <point x="178" y="700" type="line"/>
      <point x="230" y="0" type="line"/>
      <point x="430" y="0" type="line"/>
      <point x="779" y="700" type="line"/>
      <point x="626" y="700" type="line"/>
      <point x="364" y="171" type="line"/>
    </contour>
  </outline>
</glyph>
<glyph name="W" format="2">
  <advance width="965"/>
  <unicode hex="0057"/>
  <outline>
    <contour>
      <point x="396" y="0" type="line"/>
      <point x="598" y="480" type="line"/>
      <point x="596" y="0" type="line"/>
      <point x="776" y="0" type="line"/>
      <point x="1088" y="700" type="line"/>
      <point x="938" y="700" type="line"/>
      <point x="724" y="219" type="line"/>
      <point x="726" y="700" type="line"/>
      <point x="557" y="700" type="line"/>
      <point x="354" y="219" type="line"/>
      <point x="345" y="700" type="line"/>
      <point x="201" y="700" type="line"/>
      <point x="216" y="0" type="line"/>
    </contour>
  </outline>
</glyph>
<glyph name="X" format="2">
  <advance width="650"/>
  <unicode hex="0058"/>
  <outline>
    <contour>
      <point x="479" y="0" type="line"/>
      <point x="632" y="0" type="line"/>
      <point x="349" y="700" type="line"/>
      <point x="196" y="700" type="line"/>
    </contour>
    <contour>
      <point x="590" y="700" type="line"/>
      <point x="13" y="1" type="line"/>
      <point x="193" y="0" type="line"/>
      <point x="773" y="700" type="line"/>
    </contour>
  </outline>
</glyph>
<glyph name="Y" format="2">
  <advance width="640"/>
  <unicode hex="0059"/>
  <outline>
    <contour>
      <point x="303" y="287" type="line"/>
      <point x="244" y="0" type="line"/>
      <point x="387" y="0" type="line"/>
      <point x="446" y="268" type="line"/>
      <point x="776" y="699" type="line"/>
      <point x="601" y="699" type="line"/>
      <point x="404" y="443" type="line"/>
      <point x="315" y="699" type="line"/>
      <point x="162" y="699" type="line"/>
    </contour>
  </outline>
</glyph>
<glyph name="Z" format="2">
  <advance width="625"/>
  <unicode hex="005A"/>
  <outline>
    <contour>
      <point x="187" y="556" type="line"/>
      <point x="479" y="556" type="line"/>
      <point x="87" y="143" type="line"/>
      <point x="56" y="0" type="line"/>
      <point x="568" y="0" type="line"/>
      <point x="598" y="143" type="line"/>
      <point x="286" y="143" type="line"/>
      <point x="676" y="556" type="line"/>
      <point x="707" y="699" type="line"/>
      <point x="217" y="699" type="line"/>
    </contour>
  </outline>
</glyph>
<glyph name="a" format="2">
  <advance width="591"/>
  <unicode hex="0061"/>
  <outline>
    <contour>
      <point x="362" y="520" type="curve" smooth="yes"/>
      <point x="418" y="520"/>
      <point x="470" y="501"/>
      <point x="489" y="466" type="curve"/>
      <point x="496" y="500" type="line"/>
      <point x="631" y="500" type="line"/>
      <point x="525" y="0" type="line"/>
      <point x="387" y="0" type="line"/>
      <point x="395" y="34" type="line"/>
      <point x="361" y="5"/>
      <point x="319" y="-13"/>
      <point x="253" y="-13" type="curve" smooth="yes"/>
      <point x="141" y="-13"/>
      <point x="83" y="83"/>
      <point x="83" y="202" type="curve" smooth="yes"/>
      <point x="83" y="367"/>
      <point x="186" y="520"/>
    </contour>
    <contour>
      <point x="367" y="399" type="curve" smooth="yes"/>
      <point x="261" y="399"/>
      <point x="223" y="302"/>
      <point x="223" y="217" type="curve" smooth="yes"/>
      <point x="223" y="160"/>
      <point x="239" y="107"/>
      <point x="307" y="107" type="curve" smooth="yes"/>
      <point x="380" y="107"/>
      <point x="420" y="155"/>
      <point x="430" y="201" type="curve" smooth="yes"/>
      <point x="453" y="309" type="line" smooth="yes"/>
      <point x="462" y="353"/>
      <point x="425" y="399"/>
    </contour>
  </outline>
</glyph>
<glyph name="b" format="2">
  <advance width="605"/>
  <unicode hex="0062"/>
  <outline>
    <contour>
      <point x="615" y="302" type="curve" smooth="yes"/>
      <point x="615" y="417"/>
      <point x="551" y="517"/>
      <point x="439" y="517" type="curve" smooth="yes"/>
      <point x="378" y="517"/>
      <point x="334" y="494"/>
      <point x="303" y="468" type="curve"/>
      <point x="351" y="700" type="line"/>
      <point x="214" y="700" type="line"/>
      <point x="65" y="0" type="line"/>
      <point x="202" y="0" type="line"/>
      <point x="211" y="39" type="line"/>
      <point x="232" y="10"/>
      <point x="271" y="-16"/>
      <point x="327" y="-16" type="curve" smooth="yes"/>
      <point x="506" y="-16"/>
      <point x="615" y="139"/>
    </contour>
    <contour>
      <point x="385" y="396" type="curve" smooth="yes"/>
      <point x="448" y="396"/>
      <point x="475" y="339"/>
      <point x="475" y="284" type="curve" smooth="yes"/>
      <point x="475" y="200"/>
      <point x="428" y="104"/>
      <point x="333" y="104" type="curve" smooth="yes"/>
      <point x="270" y="104"/>
      <point x="235" y="152"/>
      <point x="245" y="198" type="curve" smooth="yes"/>
      <point x="268" y="306" type="line" smooth="yes"/>
      <point x="277" y="350"/>
      <point x="309" y="396"/>
    </contour>
  </outline>
</glyph>
<glyph name="c" format="2">
  <advance width="573"/>
  <unicode hex="0063"/>
  <outline>
    <contour>
      <point x="556" y="130" type="line"/>
      <point x="505" y="41"/>
      <point x="413" y="-20"/>
      <point x="306" y="-20" type="curve" smooth="yes"/>
      <point x="161" y="-20"/>
      <point x="97" y="92"/>
      <point x="97" y="208" type="curve" smooth="yes"/>
      <point x="97" y="373"/>
      <point x="226" y="520"/>
      <point x="389" y="520" type="curve" smooth="yes"/>
      <point x="502" y="520"/>
      <point x="566" y="449"/>
      <point x="588" y="362" type="curve"/>
      <point x="454" y="314" type="line"/>
      <point x="447" y="357"/>
      <point x="425" y="400"/>
      <point x="374" y="400" type="curve" smooth="yes"/>
      <point x="291" y="400"/>
      <point x="236" y="289"/>
      <point x="236" y="208" type="curve" smooth="yes"/>
      <point x="236" y="158"/>
      <point x="257" y="100"/>
      <point x="321" y="100" type="curve" smooth="yes"/>
      <point x="372" y="100"/>
      <point x="410" y="137"/>
      <point x="433" y="184" type="curve"/>
    </contour>
  </outline>
</glyph>
<glyph name="d" format="2">
  <advance width="595"/>
  <unicode hex="0064"/>
  <outline>
    <contour>
      <point x="362" y="520" type="curve" smooth="yes"/>
      <point x="413" y="520"/>
      <point x="460.063" y="506"/>
      <point x="487.063" y="471" type="curve"/>
      <point x="536" y="700" type="line"/>
      <point x="674" y="700" type="line"/>
      <point x="525" y="0" type="line"/>
      <point x="387" y="0" type="line"/>
      <point x="395" y="34" type="line"/>
      <point x="361" y="5"/>
      <point x="313" y="-13"/>
      <point x="253" y="-13" type="curve" smooth="yes"/>
      <point x="141" y="-13"/>
      <point x="81.2995" y="75"/>
      <point x="83" y="202" type="curve" smooth="yes"/>
      <point x="85.2091" y="366.985"/>
      <point x="189" y="520"/>
    </contour>
    <contour>
      <point x="365" y="399" type="curve" smooth="yes"/>
      <point x="261" y="399"/>
      <point x="223.805" y="291.023"/>
      <point x="222.787" y="216" type="curve" smooth="yes"/>
      <point x="221.852" y="147.023"/>
      <point x="255" y="107"/>
      <point x="311" y="107" type="curve" smooth="yes"/>
      <point x="382" y="107"/>
      <point x="420" y="155"/>
      <point x="430" y="201" type="curve" smooth="yes"/>
      <point x="453" y="309" type="line" smooth="yes"/>
      <point x="462" y="353"/>
      <point x="423" y="399"/>
    </contour>
  </outline>
</glyph>
<glyph name="e" format="2">
  <advance width="557"/>
  <unicode hex="0065"/>
  <outline>
    <contour>
      <point x="437.874" y="146" type="line"/>
      <point x="405.874" y="116"/>
      <point x="360" y="105"/>
      <point x="317" y="105" type="curve" smooth="yes"/>
      <point x="256" y="105"/>
      <point x="220" y="145"/>
      <point x="223" y="205" type="curve"/>
      <point x="556" y="205" type="line"/>
      <point x="561" y="233"/>
      <point x="563" y="257"/>
      <point x="564" y="282" type="curve" smooth="yes"/>
      <point x="571" y="427"/>
      <point x="504" y="514"/>
      <point x="379" y="514" type="curve" smooth="yes"/>
      <point x="208" y="514"/>
      <point x="97" y="370"/>
      <point x="97" y="208" type="curve" smooth="yes"/>
      <point x="97" y="92"/>
      <point x="172" y="-14"/>
      <point x="291" y="-14" type="curve" smooth="yes"/>
      <point x="387" y="-14"/>
      <point x="443.874" y="10"/>
      <point x="503.874" y="60" type="curve"/>
    </contour>
    <contour>
      <point x="245" y="307" type="line"/>
      <point x="264" y="363"/>
      <point x="308" y="400"/>
      <point x="361" y="400" type="curve" smooth="yes"/>
      <point x="414" y="400"/>
      <point x="442" y="363"/>
      <point x="438" y="307" type="curve"/>
    </contour>
  </outline>
</glyph>
<glyph name="f" format="2">
  <advance width="402"/>
  <unicode hex="0066"/>
  <outline>
    <contour>
      <point x="243" y="0" type="line"/>
      <point x="326" y="391" type="line"/>
      <point x="423" y="391" type="line"/>
      <point x="447" y="504" type="line"/>
      <point x="350" y="504" type="line"/>
      <point x="347" y="552"/>
      <point x="380" y="583"/>
      <point x="438" y="583" type="curve" smooth="yes"/>
      <point x="450" y="583"/>
      <point x="465" y="581"/>
      <point x="471" y="579" type="curve"/>
      <point x="519" y="690" type="line"/>
      <point x="476" y="698"/>
      <point x="430" y="704"/>
      <point x="400" y="704" type="curve" smooth="yes"/>
      <point x="310" y="704"/>
      <point x="245" y="652"/>
      <point x="229" y="577" type="curve" smooth="yes"/>
      <point x="213" y="504" type="line"/>
      <point x="133" y="504" type="line"/>
      <point x="109" y="391" type="line"/>
      <point x="189" y="391" type="line"/>
      <point x="106" y="0" type="line"/>
    </contour>
  </outline>
</glyph>
<glyph name="g" format="2">
  <advance width="585"/>
  <unicode hex="0067"/>
  <outline>
    <contour>
      <point x="377" y="27" type="line" smooth="yes"/>
      <point x="365" y="-24"/>
      <point x="308" y="-41"/>
      <point x="255" y="-41" type="curve" smooth="yes"/>
      <point x="200" y="-41"/>
      <point x="149" y="-23"/>
      <point x="103" y="5" type="curve"/>
      <point x="25" y="-98" type="line"/>
      <point x="73" y="-134"/>
      <point x="150" y="-165"/>
      <point x="232" y="-165" type="curve" smooth="yes"/>
      <point x="382" y="-165"/>
      <point x="486" y="-105"/>
      <point x="512" y="19" type="curve" smooth="yes"/>
      <point x="614" y="500" type="line"/>
      <point x="478" y="500" type="line"/>
      <point x="466" y="456" type="line"/>
      <point x="436" y="491"/>
      <point x="391" y="507"/>
      <point x="348" y="507" type="curve" smooth="yes"/>
      <point x="176" y="507"/>
      <point x="86" y="371"/>
      <point x="86" y="228" type="curve" smooth="yes"/>
      <point x="86" y="123"/>
      <point x="146" y="25"/>
      <point x="259" y="25" type="curve" smooth="yes"/>
      <point x="313" y="25"/>
      <point x="354" y="34"/>
      <point x="387" y="67" type="curve"/>
    </contour>
    <contour>
      <point x="436" y="303" type="curve" smooth="yes"/>
      <point x="422" y="236" type="line" smooth="yes"/>
      <point x="410" y="178"/>
      <point x="362" y="147"/>
      <point x="308" y="147" type="curve" smooth="yes"/>
      <point x="247" y="147"/>
      <point x="223" y="197"/>
      <point x="223" y="245" type="curve" smooth="yes"/>
      <point x="223" y="317"/>
      <point x="269" y="388"/>
      <point x="350" y="388" type="curve" smooth="yes"/>
      <point x="403" y="388"/>
      <point x="446" y="351"/>
    </contour>
  </outline>
</glyph>
<glyph name="i" format="2">
  <advance width="317"/>
  <unicode hex="0069"/>
  <outline>
    <component base="dotlessi"/>
    <contour>
      <point x="347" y="628" type="curve" smooth="yes"/>
      <point x="347" y="671"/>
      <point x="313" y="705"/>
      <point x="270" y="705" type="curve" smooth="yes"/>
      <point x="227" y="705"/>
      <point x="191" y="670"/>
      <point x="191" y="627" type="curve" smooth="yes"/>
      <point x="191" y="584"/>
      <point x="226" y="549"/>
      <point x="269" y="549" type="curve" smooth="yes"/>
      <point x="312" y="549"/>
      <point x="347" y="585"/>
    </contour>
  </outline>
</glyph>
<glyph name="j" format="2">
  <advance width="355"/>
  <unicode hex="006A"/>
  <outline>
    <contour>
      <point x="41" y="-41" type="curve"/>
      <point x="-16" y="-153" type="line"/>
      <point x="9" y="-161"/>
      <point x="49" y="-168"/>
      <point x="87" y="-168" type="curve" smooth="yes"/>
      <point x="156" y="-168"/>
      <point x="245" y="-149"/>
      <point x="264" y="-60" type="curve" smooth="yes"/>
      <point x="383" y="500" type="line"/>
      <point x="245" y="500" type="line"/>
      <point x="137" y="-11" type="line"/>
      <point x="126" y="-32"/>
      <point x="104" y="-46"/>
      <point x="79" y="-46" type="curve" smooth="yes"/>
      <point x="69" y="-46"/>
      <point x="52" y="-44"/>
    </contour>
    <contour>
      <point x="417" y="628" type="curve" smooth="yes"/>
      <point x="417" y="671"/>
      <point x="383" y="705"/>
      <point x="340" y="705" type="curve" smooth="yes"/>
      <point x="297" y="705"/>
      <point x="261" y="670"/>
      <point x="261" y="627" type="curve" smooth="yes"/>
      <point x="261" y="584"/>
      <point x="296" y="549"/>
      <point x="339" y="549" type="curve" smooth="yes"/>
      <point x="382" y="549"/>
      <point x="417" y="585"/>
    </contour>
  </outline>
</glyph>
<glyph name="k" format="2">
  <advance width="570"/>
  <unicode hex="006B"/>
  <outline>
    <contour>
      <point x="396" y="0" type="line"/>
      <point x="552" y="0" type="line"/>
      <point x="401" y="287" type="line"/>
      <point x="658" y="500" type="line"/>
      <point x="466" y="500" type="line"/>
      <point x="269" y="336" type="line"/>
      <point x="347" y="700" type="line"/>
      <point x="210" y="700" type="line"/>
      <point x="61" y="0" type="line"/>
      <point x="198" y="0" type="line"/>
      <point x="228" y="138" type="line"/>
      <point x="295" y="193" type="line"/>
    </contour>
  </outline>
</glyph>
<glyph name="l" format="2">
  <advance width="321"/>
  <unicode hex="006C"/>
  <outline>
    <contour>
      <point x="87" y="104" type="line" smooth="yes"/>
      <point x="85" y="96"/>
      <point x="85" y="88"/>
      <point x="85" y="81" type="curve" smooth="yes"/>
      <point x="85" y="33"/>
      <point x="117" y="-15"/>
      <point x="179" y="-15" type="curve" smooth="yes"/>
      <point x="203" y="-15"/>
      <point x="254" y="-8"/>
      <point x="302" y="3" type="curve"/>
      <point x="309.725" y="117" type="line"/>
      <point x="288.725" y="114"/>
      <point x="270.725" y="112"/>
      <point x="260.725" y="112" type="curve" smooth="yes"/>
      <point x="235.725" y="112"/>
      <point x="228.87" y="123.968"/>
      <point x="232.725" y="142" type="curve" smooth="yes"/>
      <point x="352" y="700" type="line"/>
      <point x="214" y="700" type="line"/>
    </contour>
  </outline>
</glyph>
<glyph name="m" format="2">
  <advance width="850"/>
  <unicode hex="006D"/>
  <outline>
    <contour>
      <point x="786" y="0" type="line"/>
      <point x="649" y="0" type="line"/>
      <point x="786" y="0" type="line"/>
      <point x="843" y="278" type="line" smooth="yes"/>
      <point x="847" y="297"/>
      <point x="848" y="315"/>
      <point x="849" y="332" type="curve" smooth="yes"/>
      <point x="853" y="449"/>
      <point x="803" y="512"/>
      <point x="700" y="512" type="curve" smooth="yes"/>
      <point x="639" y="512"/>
      <point x="571" y="485"/>
      <point x="539" y="443" type="curve"/>
      <point x="524" y="485"/>
      <point x="486" y="512"/>
      <point x="428" y="512" type="curve" smooth="yes"/>
      <point x="374" y="512"/>
      <point x="321" y="492"/>
      <point x="298" y="461" type="curve"/>
      <point x="306" y="500" type="line"/>
      <point x="169" y="500" type="line"/>
      <point x="63" y="0" type="line"/>
      <point x="200" y="0" type="line"/>
      <point x="263" y="300" type="line" smooth="yes"/>
      <point x="272" y="343"/>
      <point x="314" y="384"/>
      <point x="363" y="384" type="curve" smooth="yes"/>
      <point x="400" y="384"/>
      <point x="423" y="355"/>
      <point x="423" y="322" type="curve" smooth="yes"/>
      <point x="423" y="315"/>
      <point x="423" y="307"/>
      <point x="421" y="300" type="curve" smooth="yes"/>
      <point x="357" y="0" type="line"/>
      <point x="492" y="0" type="line"/>
      <point x="556" y="300" type="line" smooth="yes"/>
      <point x="565" y="343"/>
      <point x="610" y="384"/>
      <point x="654" y="384" type="curve" smooth="yes"/>
      <point x="690" y="384"/>
      <point x="716" y="355"/>
      <point x="716" y="323" type="curve" smooth="yes"/>
      <point x="716" y="315"/>
      <point x="715" y="308"/>
      <point x="713" y="300" type="curve" smooth="yes"/>
      <point x="649" y="0" type="line"/>
    </contour>
  </outline>
</glyph>
<glyph name="n" format="2">
  <advance width="587"/>
  <unicode hex="006E"/>
  <outline>
    <contour>
      <point x="385" y="0" type="line"/>
      <point x="522" y="0" type="line"/>
      <point x="385" y="0" type="line"/>
      <point x="522" y="0" type="line"/>
      <point x="582" y="285" type="line" smooth="yes"/>
      <point x="586" y="304"/>
      <point x="589" y="323"/>
      <point x="589" y="341" type="curve" smooth="yes"/>
      <point x="589" y="455"/>
      <point x="533" y="512"/>
      <point x="436" y="512" type="curve" smooth="yes"/>
      <point x="384" y="512"/>
      <point x="322" y="482"/>
      <point x="295" y="452" type="curve"/>
      <point x="306" y="500" type="line"/>
      <point x="171" y="500" type="line"/>
      <point x="65" y="0" type="line"/>
      <point x="202" y="0" type="line"/>
      <point x="265" y="298" type="line" smooth="yes"/>
      <point x="277" y="355"/>
      <point x="324" y="387"/>
      <point x="377" y="387" type="curve" smooth="yes"/>
      <point x="428" y="387"/>
      <point x="449" y="355"/>
      <point x="449" y="310" type="curve" smooth="yes"/>
      <point x="449" y="302"/>
      <point x="449" y="295"/>
      <point x="447" y="287" type="curve" smooth="yes"/>
    </contour>
  </outline>
</glyph>
<glyph name="o" format="2">
  <advance width="589"/>
  <unicode hex="006F"/>
  <outline>
    <contour>
      <point x="389" y="520" type="curve" smooth="yes"/>
      <point x="226" y="520"/>
      <point x="97" y="373"/>
      <point x="97" y="208" type="curve" smooth="yes"/>
      <point x="97" y="92"/>
      <point x="161" y="-20"/>
      <point x="306" y="-20" type="curve" smooth="yes"/>
      <point x="469" y="-20"/>
      <point x="597" y="122"/>
      <point x="597" y="288" type="curve" smooth="yes"/>
      <point x="597" y="405"/>
      <point x="533" y="520"/>
    </contour>
    <contour>
      <point x="321" y="100" type="curve" smooth="yes"/>
      <point x="257" y="100"/>
      <point x="236" y="158"/>
      <point x="236" y="208" type="curve" smooth="yes"/>
      <point x="236" y="289"/>
      <point x="291" y="400"/>
      <point x="374" y="400" type="curve" smooth="yes"/>
      <point x="437" y="400"/>
      <point x="457" y="336"/>
      <point x="457" y="285" type="curve" smooth="yes"/>
      <point x="457" y="203"/>
      <point x="406" y="100"/>
    </contour>
  </outline>
</glyph>
<glyph name="q" format="2">
  <advance width="595"/>
  <unicode hex="0071"/>
  <outline>
    <contour>
      <point x="362" y="520" type="curve" smooth="yes"/>
      <point x="413" y="520"/>
      <point x="460.063" y="506"/>
      <point x="487.063" y="471" type="curve"/>
      <point x="493.242" y="499.906" type="line"/>
      <point x="631.46" y="500.149" type="line"/>
      <point x="492.556" y="-149.688" type="line"/>
      <point x="354.556" y="-149.688" type="line"/>
      <point x="395" y="34" type="line"/>
      <point x="361" y="5"/>
      <point x="313" y="-13"/>
      <point x="253" y="-13" type="curve" smooth="yes"/>
      <point x="141" y="-13"/>
      <point x="81.2995" y="75"/>
      <point x="83" y="202" type="curve" smooth="yes"/>
      <point x="85.2091" y="366.985"/>
      <point x="189" y="520"/>
    </contour>
    <contour>
      <point x="365" y="399" type="curve" smooth="yes"/>
      <point x="261" y="399"/>
      <point x="223.805" y="291.023"/>
      <point x="222.787" y="216" type="curve" smooth="yes"/>
      <point x="221.852" y="147.023"/>
      <point x="255" y="107"/>
      <point x="311" y="107" type="curve" smooth="yes"/>
      <point x="382" y="107"/>
      <point x="420" y="155"/>
      <point x="430" y="201" type="curve" smooth="yes"/>
      <point x="453" y="309" type="line" smooth="yes"/>
      <point x="462" y="353"/>
      <point x="423" y="399"/>
    </contour>
  </outline>
</glyph>
<glyph name="r" format="2">
  <advance width="425"/>
  <unicode hex="0072"/>
  <outline>
    <contour>
      <point x="438" y="366" type="curve"/>
      <point x="469" y="508" type="line"/>
      <point x="436" y="508" type="line" smooth="yes"/>
      <point x="388" y="508"/>
      <point x="332" y="484"/>
      <point x="291" y="432" type="curve"/>
      <point x="308" y="499" type="line"/>
      <point x="171" y="499" type="line"/>
      <point x="65" y="0" type="line"/>
      <point x="201" y="0" type="line"/>
      <point x="254" y="247" type="line" smooth="yes"/>
      <point x="271" y="328"/>
      <point x="334" y="371"/>
      <point x="408" y="368" type="curve" smooth="yes"/>
      <point x="411" y="368"/>
      <point x="428" y="367"/>
    </contour>
  </outline>
</glyph>
<glyph name="s" format="2">
  <advance width="500"/>
  <unicode hex="0073"/>
  <outline>
    <contour>
      <point x="445" y="350" type="curve"/>
      <point x="544" y="433" type="line"/>
      <point x="505" y="484"/>
      <point x="432" y="515"/>
      <point x="352" y="515" type="curve" smooth="yes"/>
      <point x="238" y="515"/>
      <point x="122" y="461"/>
      <point x="122" y="337" type="curve" smooth="yes"/>
      <point x="122" y="276"/>
      <point x="159" y="223"/>
      <point x="232" y="205" type="curve" smooth="yes"/>
      <point x="292" y="190" type="line" smooth="yes"/>
      <point x="321" y="183"/>
      <point x="349" y="168"/>
      <point x="349" y="143" type="curve" smooth="yes"/>
      <point x="349" y="104"/>
      <point x="302" y="99"/>
      <point x="271" y="99" type="curve" smooth="yes"/>
      <point x="225" y="99"/>
      <point x="175" y="127"/>
      <point x="148" y="169" type="curve"/>
      <point x="35" y="84" type="line"/>
      <point x="96" y="8"/>
      <point x="172" y="-15"/>
      <point x="254" y="-15" type="curve" smooth="yes"/>
      <point x="366" y="-15"/>
      <point x="492" y="40"/>
      <point x="492" y="164" type="curve" smooth="yes"/>
      <point x="492" y="229"/>
      <point x="449" y="278"/>
      <point x="374" y="300" type="curve" smooth="yes"/>
      <point x="307" y="320" type="line" smooth="yes"/>
      <point x="272" y="330"/>
      <point x="261" y="339"/>
      <point x="261" y="353" type="curve" smooth="yes"/>
      <point x="261" y="389"/>
      <point x="309" y="405"/>
      <point x="339" y="405" type="curve" smooth="yes"/>
      <point x="387" y="405"/>
      <point x="427" y="373"/>
    </contour>
  </outline>
</glyph>
<glyph name="t" format="2">
  <advance width="417"/>
  <unicode hex="0074"/>
  <outline>
    <contour>
      <point x="245" y="660" type="line"/>
      <point x="212" y="504" type="line"/>
      <point x="132" y="504" type="line"/>
      <point x="107.638" y="393" type="line"/>
      <point x="188.638" y="393" type="line"/>
      <point x="127" y="103" type="line" smooth="yes"/>
      <point x="125.083" y="93.9819"/>
      <point x="124" y="86"/>
      <point x="124" y="78" type="curve" smooth="yes"/>
      <point x="124" y="20"/>
      <point x="172" y="-16"/>
      <point x="247" y="-16" type="curve" smooth="yes"/>
      <point x="284" y="-16"/>
      <point x="340" y="-7"/>
      <point x="389" y="6" type="curve"/>
      <point x="380.512" y="113" type="line"/>
      <point x="358.512" y="105"/>
      <point x="327.512" y="100"/>
      <point x="310.512" y="100" type="curve" smooth="yes"/>
      <point x="279.512" y="100"/>
      <point x="266.81" y="116.934"/>
      <point x="271.512" y="139" type="curve" smooth="yes"/>
      <point x="325.638" y="393" type="line"/>
      <point x="451.638" y="393" type="line"/>
      <point x="475" y="504" type="line"/>
      <point x="349" y="504" type="line"/>
      <point x="391" y="699" type="line"/>
    </contour>
  </outline>
</glyph>
<glyph name="u" format="2">
  <advance width="588"/>
  <unicode hex="0075"/>
  <outline>
    <contour>
      <point x="308" y="500" type="line"/>
      <point x="247" y="213" type="line" smooth="yes"/>
      <point x="245" y="205"/>
      <point x="245" y="198"/>
      <point x="245" y="190" type="curve" smooth="yes"/>
      <point x="245" y="145"/>
      <point x="265" y="113"/>
      <point x="316" y="113" type="curve" smooth="yes"/>
      <point x="369" y="113"/>
      <point x="417" y="146"/>
      <point x="429" y="203" type="curve" smooth="yes"/>
      <point x="492" y="500" type="line"/>
      <point x="629" y="500" type="line"/>
      <point x="522" y="0" type="line"/>
      <point x="388" y="0" type="line"/>
      <point x="398" y="48" type="line"/>
      <point x="371" y="18"/>
      <point x="309" y="-12"/>
      <point x="257" y="-12" type="curve" smooth="yes"/>
      <point x="160" y="-12"/>
      <point x="105" y="45"/>
      <point x="105" y="159" type="curve" smooth="yes"/>
      <point x="105" y="177"/>
      <point x="107" y="196"/>
      <point x="111" y="215" type="curve" smooth="yes"/>
      <point x="172" y="500" type="line"/>
      <point x="308" y="500" type="line"/>
      <point x="172" y="500" type="line"/>
    </contour>
  </outline>
</glyph>
<glyph name="v" format="2">
  <advance width="535"/>
  <unicode hex="0076"/>
  <outline>
    <contour>
      <point x="124" y="500" type="line"/>
      <point x="191" y="0" type="line"/>
      <point x="344" y="0" type="line"/>
      <point x="624" y="500" type="line"/>
      <point x="477" y="500" type="line"/>
      <point x="302" y="186" type="line"/>
      <point x="260" y="500" type="line"/>
    </contour>
  </outline>
</glyph>
<glyph name="w" format="2">
  <advance width="800"/>
  <unicode hex="0077"/>
  <outline>
    <contour>
      <point x="461" y="0" type="line"/>
      <point x="621" y="0" type="line"/>
      <point x="869" y="500" type="line"/>
      <point x="728" y="500" type="line"/>
      <point x="572" y="183" type="line"/>
      <point x="565" y="500" type="line"/>
      <point x="417" y="500" type="line"/>
      <point x="274" y="183" type="line"/>
      <point x="253" y="500" type="line"/>
      <point x="123" y="500" type="line"/>
      <point x="157" y="0" type="line"/>
      <point x="317" y="0" type="line"/>
      <point x="455" y="309" type="line"/>
    </contour>
  </outline>
</glyph>
<glyph name="x" format="2">
  <advance width="550"/>
  <unicode hex="0078"/>
  <outline>
    <contour>
      <point x="372" y="0" type="line"/>
      <point x="516" y="0" type="line"/>
      <point x="288" y="500" type="line"/>
      <point x="145" y="500" type="line"/>
    </contour>
    <contour>
      <point x="448" y="500" type="line"/>
      <point x="8" y="0" type="line"/>
      <point x="175" y="0" type="line"/>
      <point x="611" y="500" type="line"/>
    </contour>
  </outline>
</glyph>
<glyph name="y" format="2">
  <advance width="510"/>
  <unicode hex="0079"/>
  <outline>
    <contour>
      <point x="303" y="198" type="line"/>
      <point x="259" y="500" type="line"/>
      <point x="116" y="500" type="line"/>
      <point x="186" y="23" type="line"/>
      <point x="186" y="0" type="line"/>
      <point x="176" y="-29"/>
      <point x="154" y="-39"/>
      <point x="125" y="-40" type="curve" smooth="yes"/>
      <point x="116" y="-40"/>
      <point x="105" y="-38"/>
      <point x="98" y="-37" type="curve" smooth="yes"/>
      <point x="57" y="-30" type="line"/>
      <point x="15" y="-149" type="line"/>
      <point x="59" y="-158"/>
      <point x="111" y="-164"/>
      <point x="144" y="-163" type="curve" smooth="yes"/>
      <point x="213" y="-162"/>
      <point x="250" y="-130"/>
      <point x="276" y="-84" type="curve" smooth="yes"/>
      <point x="608" y="500" type="line"/>
      <point x="475" y="500" type="line"/>
    </contour>
  </outline>
</glyph>
<glyph name="z" format="2">
  <advance width="465"/>
  <unicode hex="007A"/>
  <outline>
    <contour>
      <point x="27" y="0" type="line"/>
      <point x="423" y="0" type="line"/>
      <point x="446.725" y="111" type="line"/>
      <point x="229.725" y="111" type="line"/>
      <point x="500.275" y="389" type="line"/>
      <point x="523" y="500" type="line"/>
      <point x="146" y="500" type="line"/>
      <point x="123.275" y="389" type="line"/>
      <point x="321.275" y="389" type="line"/>
      <point x="50.5121" y="110" type="line"/>
    </contour>
  </outline>
</glyph>
<glyph name="periodcentered" format="2">
  <advance width="280"/>
  <unicode hex="00B7"/>
  <outline>
    <contour>
      <point x="219" y="299" type="curve" smooth="yes"/>
      <point x="219" y="339"/>
      <point x="186" y="374"/>
      <point x="144" y="374" type="curve" smooth="yes"/>
      <point x="102" y="374"/>
      <point x="69" y="339"/>
      <point x="69" y="299" type="curve" smooth="yes"/>
      <point x="69" y="259"/>
      <point x="102" y="224"/>
      <point x="144" y="224" type="curve" smooth="yes"/>
      <point x="186" y="224"/>
      <point x="219" y="259"/>
    </contour>
  </outline>
</glyph>
<glyph name="onequarter" format="2">
  <advance width="650"/>
  <unicode hex="00BC"/>
  <outline>
    <contour>
      <point x="546" y="491" type="line"/>
      <point x="406" y="491" type="line"/>
      <point x="157" y="186" type="line"/>
      <point x="157" y="83" type="line"/>
      <point x="434" y="83" type="line"/>
      <point x="434" y="0" type="line"/>
      <point x="546" y="0" type="line"/>
      <point x="546" y="83" type="line"/>
      <point x="619" y="83" type="line"/>
      <point x="619" y="186" type="line"/>
      <point x="546" y="186" type="line"/>
    </contour>
    <contour>
      <point x="282" y="186" type="line"/>
      <point x="434" y="373" type="line"/>
      <point x="434" y="186" type="line"/>
    </contour>
    <contour>
      <point x="26" y="721" type="curve"/>
      <point x="26" y="648" type="line"/>
      <point x="95" y="648" type="line"/>
      <point x="95" y="302" type="line"/>
      <point x="207" y="302" type="line"/>
      <point x="207" y="795" type="line"/>
      <point x="106" y="795" type="line"/>
      <point x="103" y="740"/>
      <point x="71" y="710"/>
    </contour>
  </outline>
</glyph>
<glyph name="dotlessi" format="2">
  <advance width="319"/>
  <unicode hex="0131"/>
  <outline>
    <contour>
      <point x="87" y="104" type="line" smooth="yes"/>
      <point x="85" y="96"/>
      <point x="85" y="88"/>
      <point x="85" y="81" type="curve" smooth="yes"/>
      <point x="85" y="33"/>
      <point x="117" y="-15"/>
      <point x="179" y="-15" type="curve" smooth="yes"/>
      <point x="203" y="-15"/>
      <point x="254" y="-8"/>
      <point x="302" y="3" type="curve"/>
      <point x="312" y="123" type="line"/>
      <point x="291" y="120"/>
      <point x="273" y="118"/>
      <point x="263" y="118" type="curve" smooth="yes"/>
      <point x="238" y="118"/>
      <point x="231" y="130"/>
      <point x="235" y="148" type="curve" smooth="yes"/>
      <point x="309" y="500" type="line"/>
      <point x="172" y="499" type="line"/>
    </contour>
  </outline>
</glyph>
<glyph name="acutecomb" format="2">
  <advance width="333"/>
  <unicode hex="0301"/>
  <anchor x="308" y="530" name="_top"/>
  <outline>
    <contour>
      <point x="193.886" y="633.294" type="line"/>
      <point x="193.314" y="549.668" type="line"/>
      <point x="450.414" y="621.025" type="line"/>
      <point x="451.925" y="727.594" type="line"/>
    </contour>
  </outline>
</glyph>
<glyph name="uni2032" format="2">
  <advance width="440"/>
  <unicode hex="2032"/>
  <outline>
    <contour>
      <point x="30" y="549" type="line"/>
      <point x="179" y="549" type="line"/>
      <point x="291" y="742" type="line"/>
      <point x="141" y="742" type="line"/>
    </contour>
    <contour>
      <point x="357" y="459" type="line"/>
      <point x="117" y="459" type="line"/>
      <point x="117" y="340" type="line"/>
      <point x="357" y="340" type="line"/>
    </contour>
  </outline>
</glyph>
<glyph name="uni2033" format="2">
  <advance width="505"/>
  <unicode hex="2033"/>
  <outline>
    <contour>
      <point x="230" y="549" type="line"/>
      <point x="380" y="549" type="line"/>
      <point x="491" y="742" type="line"/>
      <point x="341" y="742" type="line"/>
    </contour>
    <contour>
      <point x="30" y="549" type="line"/>
      <point x="179" y="549" type="line"/>
      <point x="291" y="742" type="line"/>
      <point x="141" y="742" type="line"/>
    </contour>
  </outline>
</glyph>
<glyph name="uni2193" format="2">
  <advance width="2125"/>
  <unicode hex="2193"/>
  <outline>
    <contour>
      <point x="812" y="433" type="line"/>
      <point x="0" y="625" type="line"/>
      <point x="1063" y="-125" type="line"/>
      <point x="2124" y="625" type="line"/>
      <point x="1312" y="433" type="line"/>
      <point x="1312" y="750" type="line"/>
      <point x="812" y="750" type="line"/>
    </contour>
  </outline>
</glyph>
<glyph name="acutecomb.case" format="2">
  <advance width="333"/>
  <anchor x="365.68" y="725" name="_top"/>
  <outline>
    <contour>
      <point x="234.272" y="823.294" type="line"/>
      <point x="233.7" y="739.668" type="line"/>
      <point x="490.8" y="811.025" type="line"/>
      <point x="492.311" y="917.594" type="line"/>
    </contour>
  </outline>
</glyph>
<glyph name="glyph88" format="2">
  <advance width="1625"/>
  <outline>
    <contour>
      <point x="624" y="614" type="line"/>
      <point x="685" y="614" type="line"/>
      <point x="584" y="237" type="line"/>
      <point x="582" y="221"/>
      <point x="589" y="204"/>
      <point x="589" y="204" type="curve"/>
      <point x="517" y="204" type="line"/>
      <point x="504" y="221" type="line"/>
      <point x="485" y="213"/>
      <point x="455" y="203"/>
      <point x="410" y="203" type="curve" smooth="yes"/>
      <point x="325" y="203"/>
      <point x="281" y="267"/>
      <point x="281" y="354" type="curve" smooth="yes"/>
      <point x="281" y="517"/>
      <point x="402" y="626"/>
      <point x="517" y="626" type="curve" smooth="yes"/>
      <point x="567" y="626"/>
      <point x="593" y="614"/>
      <point x="611" y="600" type="curve"/>
    </contour>
    <contour>
      <point x="573" y="485" type="curve" smooth="yes"/>
      <point x="574" y="515"/>
      <point x="553" y="554"/>
      <point x="509" y="554" type="curve" smooth="yes"/>
      <point x="456" y="554"/>
      <point x="357" y="464"/>
      <point x="360" y="357" type="curve" smooth="yes"/>
      <point x="361" y="310"/>
      <point x="391" y="279"/>
      <point x="443" y="279" type="curve" smooth="yes"/>
      <point x="499" y="279"/>
      <point x="570" y="360"/>
    </contour>
    <contour>
      <point x="1389" y="496" type="line"/>
      <point x="1329" y="496" type="line"/>
      <point x="1325" y="484" type="line"/>
      <point x="1304" y="496"/>
      <point x="1294" y="500"/>
      <point x="1254" y="500" type="curve" smooth="yes"/>
      <point x="1211" y="500"/>
      <point x="1099" y="461"/>
      <point x="1092" y="304" type="curve" smooth="yes"/>
      <point x="1088" y="209"/>
      <point x="1168" y="203"/>
      <point x="1188" y="203" type="curve" smooth="yes"/>
      <point x="1208" y="203"/>
      <point x="1230" y="207"/>
      <point x="1247" y="214" type="curve"/>
      <point x="1268" y="203" type="line"/>
      <point x="1322" y="203" type="line"/>
      <point x="1317" y="230" type="line"/>
    </contour>
    <contour>
      <point x="1258" y="430" type="curve" smooth="yes"/>
      <point x="1277" y="430"/>
      <point x="1298" y="425"/>
      <point x="1298" y="379" type="curve" smooth="yes"/>
      <point x="1298" y="312"/>
      <point x="1245" y="275"/>
      <point x="1210" y="272" type="curve" smooth="yes"/>
      <point x="1175" y="269"/>
      <point x="1169" y="305"/>
      <point x="1169" y="326" type="curve" smooth="yes"/>
      <point x="1169" y="347"/>
      <point x="1204" y="430"/>
    </contour>
  </outline>
</glyph>
<glyph name="slash.case" format="2">
  <advance width="405"/>
  <outline>
    <contour>
      <point x="367" y="761" type="line"/>
      <point x="261" y="792" type="line"/>
      <point x="17" y="-61" type="line"/>
      <point x="122" y="-91" type="line"/>
    </contour>
  </outline>
</glyph>
